<?xml version="1.0" standalone="no"?>
<!DOCTYPE svg PUBLIC "-//W3C//DTD SVG 20010904//EN"
 "http://www.w3.org/TR/2001/REC-SVG-20010904/DTD/svg10.dtd">
<svg version="1.0" xmlns="http://www.w3.org/2000/svg"
 width="256.000000pt" height="256.000000pt" viewBox="0 0 256.000000 256.000000"
 preserveAspectRatio="xMidYMid meet">

<g transform="translate(0.000000,256.000000) scale(0.100000,-0.100000)"
fill="#000000" stroke="none">
<path d="M1185 2433 c-230 -30 -448 -210 -531 -436 -34 -95 -44 -195 -44 -433
0 -212 0 -214 21 -214 73 0 163 60 201 134 19 36 23 64 28 211 6 142 10 179
29 228 61 157 201 257 372 265 179 9 324 -80 402 -246 29 -61 32 -75 32 -168
0 -159 -15 -183 -349 -552 -174 -193 -280 -318 -290 -343 -34 -83 -12 -213 43
-263 17 -15 36 4 357 360 363 403 387 432 427 522 48 105 60 174 55 307 -6
133 -26 205 -89 312 -130 220 -404 350 -664 316z"/>
<path d="M1143 1628 c-426 -473 -419 -464 -457 -542 -49 -100 -69 -184 -69
-296 0 -116 19 -196 75 -310 77 -157 239 -288 418 -336 80 -21 243 -24 320 -5
192 47 358 180 444 356 62 125 68 163 73 453 l5 262 -33 0 c-79 -1 -182 -85
-207 -168 -7 -22 -12 -97 -12 -169 0 -144 -15 -221 -57 -293 -40 -68 -112
-133 -188 -171 -66 -32 -75 -34 -175 -34 -97 0 -110 2 -170 31 -120 58 -203
156 -235 279 -27 106 -14 203 39 301 15 27 149 184 298 349 175 193 278 316
291 345 37 83 18 211 -40 263 -20 17 -26 10 -320 -315z"/>
</g>
</svg>
